<svg xmlns="http://www.w3.org/2000/svg" height="74.296mm" width="41.256mm" version="1.1" viewBox="0 0 41.255589 74.295723">
 <g transform="translate(-51.944 -53.477)">
  <g fill-rule="evenodd">
   <path d="m51.944 53.477h8.2518v8.2518h-8.2518z" fill="#18676e"/>
   <path d="m60.195 53.477h8.2504v8.2518h-8.2504z" fill="#228088"/>
   <path d="m68.446 53.477h8.2518v8.2518h-8.2518z" fill="#309da3"/>
   <path d="m76.697 53.477h8.2518v8.2518h-8.2518z" fill="#61cacc"/>
   <path d="m84.949 53.477h8.2504v8.2518h-8.2504z" fill="#9eded8"/>
   <path d="m51.944 61.729h8.2518v8.2518h-8.2518z" fill="#228088"/>
   <path d="m84.949 61.729h8.2504v8.2518h-8.2504z" fill="#61cacc"/>
   <path d="m51.944 69.981h8.2518v8.2504h-8.2518z" fill="#309da3"/>
   <path d="m68.446 69.981h8.2518v8.2504h-8.2518z" fill="#61cacc"/>
   <path d="m84.949 69.981h8.2504v8.2504h-8.2504z" fill="#309da3"/>
   <path d="m51.944 78.231h8.2518v8.2518h-8.2518z" fill="#61cacc"/>
   <path d="m84.949 78.231h8.2504v8.2518h-8.2504z" fill="#228088"/>
   <path d="m51.944 86.483h8.2518v8.2504h-8.2518z" fill="#9eded8"/>
   <path d="m68.446 86.483h8.2518v8.2504h-8.2518z" fill="#309da3"/>
   <path d="m76.697 86.483h8.2518v8.2504h-8.2518z" fill="#228088"/>
   <path d="m84.949 86.483h8.2504v8.2504h-8.2504z" fill="#18676e"/>
   <path d="m51.944 97.975h7.9209v7.9209h-5.2807v2.6405h-2.6402zm35.975 7.9209h5.2807v2.6405h-7.9209v-10.565h7.9209v2.6402h-5.2807zm-7.0143-7.9209h2.642v10.561h-2.642zm-7.0129 7.9209h2.6405v2.6405h-2.6405zm2.6405-7.9209h2.6402v7.9209h-2.6402zm-5.2807 0h2.6402v7.9209h-2.6402zm-7.0143 5.2807h2.6416v-2.6405h-2.6416zm2.6416 2.6402h-2.6416v2.6405h-2.6402v-10.565h7.9223v10.561h-2.6405zm-9.6545-2.6402v-2.6405h-2.6402v2.6405z" fill="#100f0d"/>
  </g>
  <path d="m54.517 114c-0.001 0.20813-0.10442 0.3115-0.31256 0.31291h-1.0033v1.4305h-0.58843v-3.9455h1.5917c0.20814 0.001 0.3115 0.10618 0.31256 0.31291zm-0.59372-0.19298v-1.5018h-0.72214v1.5018zm21.595 1.9364h-0.58314l-0.11854-0.74824h-0.73977l-0.11712 0.74824h-0.58315v-0.0113l0.76342-3.9384h0.62018zm-0.78564-1.2541-0.28786-1.7819-0.28964 1.7819zm-18.16 1.2541h-1.6372v-3.9455h1.6221v0.52246h-1.0336v1.1504h0.89288v0.51117h-0.89288v1.239h1.0488zm2.2916-0.31291c0 0.20814-0.10337 0.3115-0.3115 0.31291h-1.276c-0.20814-0.001-0.3115-0.10477-0.3115-0.31291v-0.98249h0.58843v0.79904h0.72214v-0.77434l-1.1825-1.119c-0.0854-0.0826-0.12805-0.18733-0.12805-0.31539v-0.92745c0-0.20673 0.10336-0.3115 0.3115-0.31291h1.276c0.20813 0.001 0.3115 0.10336 0.3115 0.30726v0.9331h-0.58843v-0.74436h-0.72214v0.71544l1.1822 1.1148c0.0857 0.0797 0.12841 0.18733 0.12841 0.31962zm2.727 0.3182h-0.0413l-0.266-0.20249c-0.0399 0.13088-0.13088 0.1972-0.27411 0.1972h-1.3631c-0.20673-0.001-0.31115-0.10477-0.31256-0.31291v-3.3196c0.001-0.20673 0.10724-0.3115 0.32103-0.31291h1.3547c0.20814 0.001 0.31115 0.10618 0.31256 0.31291v2.9034l0.26882 0.19156zm-0.85725-0.51117v-0.14041l-0.34572-0.26211v-0.53728h0.0346l0.31115 0.23142v-2.2239h-0.81139v2.9323zm3.1147 0.19297c-0.001 0.20814-0.10619 0.3115-0.31292 0.31291h-1.3476c-0.20673-0.001-0.3115-0.10477-0.31291-0.31291v-3.6326h0.58843v3.4396h0.79516v-3.4396h0.58985zm1.0735 0.31291h-0.58844v-3.9455h0.58844zm2.3756-0.31291c0 0.20814-0.10477 0.3115-0.31291 0.31291h-1.2746c-0.20814-0.001-0.31291-0.10477-0.31291-0.31291v-0.98249h0.58843v0.79905h0.72355v-0.77435l-1.1839-1.119c-0.0854-0.0826-0.12806-0.18733-0.12806-0.31539v-0.92745c0-0.20673 0.10477-0.3115 0.31291-0.31291h1.2746c0.20814 0.001 0.31291 0.10336 0.31291 0.30726v0.9331h-0.58843v-0.74436h-0.72355v0.71544l1.1839 1.1148c0.0854 0.0797 0.12805 0.18733 0.12805 0.31962zm2.468 0.31291h-0.58279l-0.11995-0.74824h-0.73871l-0.11854 0.74824h-0.58279v-0.0113l0.76483-3.9384h0.62018zm-0.78564-1.2541-0.28787-1.7819-0.28927 1.7819zm3.0071 0.94121c0 0.20814-0.10478 0.3115-0.31292 0.31291h-1.2746c-0.20955-0.001-0.31292-0.10477-0.31292-0.31291v-0.98249h0.58844v0.79905h0.72354v-0.77435l-1.1839-1.119c-0.0854-0.0826-0.12806-0.18733-0.12806-0.31539v-0.92745c0-0.20673 0.10337-0.3115 0.31292-0.31291h1.2746c0.20814 0.001 0.31292 0.10336 0.31292 0.30726v0.9331h-0.58844v-0.74436h-0.72354v0.71544l1.1839 1.1148c0.084 0.0797 0.12806 0.18733 0.12806 0.31962zm5.7669-1.4305c0 0.20813-0.10443 0.3115-0.31115 0.31291h-1.0047v1.4305h-0.58844v-3.9455h1.5932c0.20672 0.001 0.31115 0.10618 0.31115 0.31291zm-0.59232-0.19297v-1.5018h-0.72354v1.5018zm2.5619 1.9364h-1.5505v-3.9455h0.58984v3.4188h0.96062zm0.95073 0h-0.58984v-3.9455h0.58984zm2.4254-0.31291c0 0.20814-0.10478 0.3115-0.31151 0.31291h-1.3173c-0.20673-0.001-0.3115-0.10477-0.3115-0.31291v-3.3196c0-0.20673 0.10477-0.3115 0.3115-0.31291h1.3173c0.20673 0.001 0.31151 0.10618 0.31151 0.31291v0.97825h-0.58843v-0.78387h-0.76342v2.9323h0.76342v-0.82691h0.58843zm2.4624 0.31291h-0.58279l-0.11995-0.74824h-0.73871l-0.11712 0.74824h-0.5842v-0.0113l0.76482-3.9384h0.62018zm-0.78529-1.2541-0.28822-1.7819-0.28927 1.7819zm3.084 0.50976c0 0.23178-0.0688 0.41346-0.20814 0.54575-0.13794 0.13229-0.32244 0.19861-0.55668 0.19861h-1.2016v-3.9455h1.2016c0.23424 0 0.41874 0.0674 0.55668 0.20249 0.13934 0.13229 0.20814 0.31574 0.20814 0.54716zm-0.59408-0.0977v-2.267c0-0.21907-0.11571-0.32914-0.34572-0.32914h-0.43815v2.9323h0.42298c0.2413 0 0.36089-0.11148 0.36089-0.3362zm3.0469 0.84208h-0.58279l-0.11853-0.74824h-0.74013l-0.11712 0.74824h-0.5842v-0.0113l0.76482-3.9384h0.62018zm-0.78528-1.2541-0.28822-1.7819-0.28928 1.7819zm3.0067 0.94121c0 0.20814-0.10477 0.3115-0.31291 0.31291h-1.2746c-0.20814-0.001-0.31291-0.10477-0.31291-0.31291v-0.98249h0.58843v0.79905h0.72355v-0.77435l-1.1836-1.119c-0.0857-0.0826-0.12841-0.18733-0.12841-0.31539v-0.92745c0-0.20673 0.10477-0.3115 0.31291-0.31291h1.2746c0.20814 0.001 0.31291 0.10336 0.31291 0.30726v0.9331h-0.58843v-0.74436h-0.72355v0.71544l1.1839 1.1148c0.0854 0.0797 0.12806 0.18733 0.12806 0.31962zm-35.093 2.3855-0.75353 3.9494h-0.58844l-0.75388-3.9494h0.59407l0.43956 2.7051c0.004 0.0769 0.01 0.19015 0.0166 0.33761-0.003-0.0773 0.001-0.19014 0.0137-0.33761l0.44345-2.7051zm13.337 3.9451h-0.58984v-3.9451h0.58984zm-16.693 0h-0.58455l-0.11819-0.74965h-0.73871l-0.11854 0.74965h-0.58278v-0.0109l0.76447-3.9398h0.62018zm-0.78564-1.2552-0.28786-1.7805-0.28964 1.7805zm5.0754 1.2552h-0.58844v-3.9451h0.58844zm2.3756-0.31256c0 0.20637-0.10477 0.31115-0.31256 0.31256h-1.2749c-0.20814-0.001-0.31256-0.10619-0.31256-0.31256v-0.98425h0.58843v0.8008h0.7232v-0.77434l-1.1836-1.119c-0.0854-0.0829-0.12806-0.18873-0.12806-0.31573v-0.92745c0-0.20779 0.10442-0.31115 0.31256-0.31257h1.2749c0.20779 0.001 0.31256 0.10337 0.31256 0.30727v0.93134h-0.58843v-0.7426h-0.7232v0.71508l1.1836 1.1134c0.0854 0.0815 0.12806 0.18908 0.12806 0.32138zm2.468 0.31256h-0.5842l-0.11853-0.74965h-0.73872l-0.11818 0.74965h-0.58314v-0.0109l0.76341-3.9398h0.6216zm-0.78528-1.2552-0.28822-1.7805-0.28928 1.7805zm0.34184-3.1835c0 0.20955-0.0801 0.31291-0.23848 0.31291-0.0868 0-0.20955-0.0289-0.36265-0.0882-0.11289-0.0469-0.22578-0.0938-0.33867-0.13934v0.22189h-0.39299v-0.39687c0-0.1584 0.0787-0.23813 0.23706-0.23813 0.091 0 0.21097 0.0289 0.35702 0.0868 0.1143 0.0466 0.23001 0.0935 0.34572 0.14041v-0.2219h0.39299zm2.763 4.1261c-0.001 0.20637-0.10478 0.31115-0.31292 0.31256h-1.3628c-0.20814-0.001-0.3115-0.10619-0.31291-0.31256v-3.32c0.001-0.20779 0.10477-0.31115 0.31291-0.31257h1.3628c0.20814 0.001 0.31151 0.10478 0.31292 0.31257zm-0.58844-0.19297v-2.9341h-0.81174v2.9341zm3.7634 0.50553h-1.6372v-3.9451h1.6221v0.52212h-1.0336v1.1508h0.89429v0.51117h-0.89429v1.239h1.0488zm4.5487 0h-0.5154l-0.94792-2.4832c0.0247 0.12135 0.0385 0.21625 0.0385 0.28539v2.1978h-0.57326v-3.9451h0.51541l0.94685 2.4335c-0.0251-0.12277-0.0374-0.21626-0.0374-0.2854v-2.1481h0.57327zm2.1883-3.423h-0.65016v3.423h-0.58844v-3.423h-0.65052v-0.52212h1.8891zm1.9375 3.423h-1.6369v-3.9451h1.6217v0.52212h-1.0319v1.1508h0.89288v0.51117h-0.89288v1.239h1.047zm1.9516 0h-1.549v-3.9451h0.58843v3.4188h0.96062zm0.95073 0h-0.58843v-3.9451h0.58843zm2.4377-0.31256c-0.001 0.20637-0.10478 0.31115-0.31292 0.31256h-1.3268c-0.20673-0.001-0.31151-0.10619-0.31151-0.31256v-3.32c0-0.20779 0.1076-0.31115 0.31962-0.31257h1.3187c0.20814 0.001 0.31151 0.10478 0.31292 0.31257v0.89041h-0.59373v-0.69745h-0.76905v2.9341h0.76905v-1.1109h-0.43991v-0.50024h1.0336zm2.1071 0.31256h-1.6372v-3.9451h1.6221v0.52212h-1.0322v1.1508h0.89288v0.51117h-0.89288v1.239h1.0474zm-0.0981-4.1148h-0.37747l-0.34713-0.28928-0.34749 0.28928h-0.37324v-0.0204l0.52352-0.65617h0.39829l0.52352 0.65617zm2.4987 4.1148h-0.5154l-0.94686-2.4832c0.0247 0.12135 0.037 0.21625 0.037 0.28539v2.1978h-0.57326v-3.9451h0.5154l0.94827 2.4335c-0.0247-0.12277-0.0388-0.21626-0.0388-0.2854v-2.1481h0.57362zm2.4169-0.31256c-0.001 0.20637-0.10478 0.31115-0.31292 0.31256h-1.3159c-0.20814-0.001-0.3115-0.10619-0.31291-0.31256v-3.32c0.001-0.20779 0.10477-0.31115 0.31291-0.31257h1.3159c0.20814 0.001 0.31151 0.10478 0.31292 0.31257v0.9786h-0.58844v-0.78564h-0.76482v2.9341h0.76482v-0.82691h0.58843zm1.0626 0.31256h-0.58843v-3.9451h0.58843zm2.4832 0h-0.58278l-0.11854-0.74965h-0.74013l-0.11712 0.74965h-0.5842v-0.0109l0.76482-3.9398h0.61984zm-0.78563-1.2552-0.28787-1.7805-0.28928 1.7805zm-32.411 6.9603c0 0.20673-0.10478 0.3115-0.3115 0.3115h-1.3173c-0.20672 0-0.3115-0.10477-0.3115-0.3115v-3.3196c0-0.20814 0.10478-0.3115 0.3115-0.31291h1.3173c0.20672 0.001 0.3115 0.10477 0.3115 0.31291v0.97825h-0.58843v-0.78528h-0.76342v2.9323h0.76342v-0.8255h0.58843zm2.4518 0c0 0.20673-0.10477 0.3115-0.3115 0.3115h-1.3631c-0.20779 0-0.31256-0.10477-0.31256-0.3115v-3.3196c0-0.20814 0.10477-0.3115 0.31256-0.31291h1.3631c0.20673 0.001 0.3115 0.10477 0.3115 0.31291zm-0.58843-0.19438v-2.9323h-0.81033v2.9323zm3.4544 0.50588h-0.56762v-1.9459c0-0.10195 0.0109-0.24518 0.0346-0.42863l-0.51117 2.0133h-0.30057l-0.51258-2.0133c0.0219 0.18627 0.0346 0.3295 0.0346 0.42863v1.9459h-0.56797v-3.944h0.55668l0.623 2.1802c0.007 0.0233 0.0124 0.0825 0.0152 0.17922 0-0.0427 0.006-0.10196 0.0166-0.17922l0.62266-2.1802h0.55668zm2.3703-1.742c0 0.20672-0.10477 0.3115-0.3115 0.31291h-1.0044v1.4291h-0.58843v-3.944h1.5928c0.20673 0.001 0.3115 0.10477 0.3115 0.31291zm-0.59372-0.19403v-1.5021h-0.72214v1.5021zm2.9848 1.6245c0 0.20673-0.10477 0.3115-0.3115 0.3115h-1.348c-0.20778 0-0.31115-0.10477-0.31256-0.3115v-3.6326h0.58844v3.4382h0.79516v-3.4382h0.58843zm2.1911-3.1115h-0.65052v3.423h-0.58984v-3.423h-0.65052v-0.52105h1.8909zm2.2984 3.423h-0.5842l-0.11853-0.74824h-0.73872l-0.11853 0.74824h-0.58279v-0.01l0.76341-3.9398h0.62159zm-0.78528-1.2541-0.28963-1.7805-0.28787 1.7805zm3.0579 0.94262c-0.001 0.20673-0.10478 0.3115-0.31292 0.3115h-1.3162c-0.20779 0-0.31115-0.10477-0.31256-0.3115v-3.3196c0.001-0.20814 0.10477-0.3115 0.31256-0.31291h1.3162c0.20814 0.001 0.3115 0.10477 0.31292 0.31291v0.97825h-0.58844v-0.78528h-0.76482v2.9323h0.76482v-0.8255h0.58844zm1.0622 0.3115h-0.58843v-3.944h0.58843zm2.4737-0.3115c-0.001 0.20673-0.10478 0.3115-0.31292 0.3115h-1.3628c-0.20814 0-0.3115-0.10477-0.31291-0.3115v-3.3196c0.001-0.20814 0.10477-0.3115 0.31291-0.31291h1.3628c0.20814 0.001 0.31151 0.10477 0.31292 0.31291zm-0.58844-0.19438v-2.9323h-0.81174v2.9323zm3.0607 0.50588h-0.5154l-0.94686-2.4818c0.0251 0.11994 0.0374 0.21625 0.0374 0.28504v2.1968h-0.57327v-3.944h0.51541l0.94792 2.4324c-0.0247-0.12136-0.037-0.2152-0.037-0.28399v-2.1484h0.57185zm2.4737 0h-0.58314l-0.11853-0.74824h-0.73978l-0.11712 0.74824h-0.58455v-0.01l0.76482-3.9398h0.62018zm-0.78563-1.2541-0.28787-1.7805-0.28963 1.7805zm2.6652 1.2541h-1.5476v-3.944h0.58843v3.4177h0.9592z" fill="#393536"/>
 </g>
</svg>
