<svg xmlns="http://www.w3.org/2000/svg" height="41.256mm" width="172.65mm" version="1.1" viewBox="0 0 172.6468 41.256252">
 <g transform="translate(-20.316 -89.651)">
  <g fill-rule="evenodd">
   <path d="m20.216 89.652h8.2504v8.2518h-8.2504z" fill="#18676e"/>
   <path d="m28.466 89.652h8.2518v8.2518h-8.2518z" fill="#228088"/>
   <path d="m36.718 89.652h8.2518v8.2518h-8.2518z" fill="#309da3"/>
   <path d="m44.97 89.652h8.2518v8.2518h-8.2518z" fill="#61cacc"/>
   <path d="m53.221 89.652h8.2504v8.2518h-8.2504z" fill="#9eded8"/>
   <path d="m20.216 97.904h8.2504v8.2504h-8.2504z" fill="#228088"/>
   <path d="m53.221 97.904h8.2504v8.2504h-8.2504z" fill="#61cacc"/>
   <path d="m20.216 106.15h8.2504v8.2518h-8.2504z" fill="#309da3"/>
   <path d="m36.718 106.15h8.2518v8.2518h-8.2518z" fill="#61cacc"/>
   <path d="m53.221 106.15h8.2504v8.2518h-8.2504z" fill="#309da3"/>
   <path d="m20.216 114.41h8.2504v8.2518h-8.2504z" fill="#61cacc"/>
   <path d="m53.221 114.41h8.2504v8.2518h-8.2504z" fill="#228088"/>
   <path d="m20.216 122.66h8.2504v8.2504h-8.2504z" fill="#9eded8"/>
   <path d="m36.718 122.66h8.2518v8.2504h-8.2518z" fill="#309da3"/>
   <path d="m44.97 122.66h8.2518v8.2504h-8.2518z" fill="#228088"/>
   <path d="m53.221 122.66h8.2504v8.2504h-8.2504z" fill="#18676e"/>
   <path d="m66.333 89.652h24.313v24.308h-16.209v8.1058h-8.104zm110.42 24.313h16.208v8.1044l-24.313 0.001v-32.409h24.313v8.1044h-16.21zm-21.52-24.308h8.1044v32.417h-8.1044zm-21.526 24.314h8.104v8.1044h-8.104zm8.104-24.314h8.1044v24.313h-8.1044zm-16.208 0h8.1044v24.313h-8.1044zm-21.528 16.209h8.104v-8.1044h-8.104zm8.104 8.104h-8.104v8.1058h-8.096v-32.418h24.313v32.417h-8.1044zm-29.618-8.1v-8.104h-8.105v8.1044z" fill="#fff"/>
  </g>
  <path d="m68.371 128.95c-0.0013 0.23283-0.11853 0.34995-0.34996 0.34995h-1.1257v1.6027h-0.658v-4.4192h1.7847c0.23142 0.001 0.34855 0.11853 0.34996 0.34995zm-0.66569-0.21626v-1.6842h-0.80998v1.6842zm24.196 2.1689h-0.6544l-0.13229-0.83784h-0.82832l-0.13229 0.83784h-0.65299v-0.0109l0.85548-4.414h0.69462zm-0.88053-1.4055-0.32244-1.9942-0.32385 1.9942zm27.664-3.0138-0.84455 4.4249h-0.66005l-0.8449-4.4249h0.66569l0.49318 3.0304c0.004 0.0868 0.01 0.21343 0.018 0.37747-0.003-0.0854 0.003-0.21237 0.0166-0.37747l0.49601-3.0304zm14.942 4.4192h-0.66005v-4.4192h0.66005zm28.856-0.34995c0 0.23283-0.11712 0.34995-0.3503 0.34995h-1.4743c-0.23284 0-0.3489-0.11712-0.34996-0.34995v-3.7193c0.001-0.23142 0.11712-0.34854 0.34996-0.34995h1.4743c0.23318 0.001 0.3503 0.11853 0.3503 0.34995v1.0968h-0.65899v-0.88054h-0.85548v3.2868h0.85548v-0.92604h0.65899zm-91.809 0.34995h-1.8341v-4.4192h1.819v0.5842h-1.1564v1.2898h1.0005v0.57326h-1.0005v1.3878h1.174zm2.5689-0.34995c0 0.23283-0.11712 0.34995-0.34996 0.34995h-1.4291c-0.23283 0-0.34996-0.11712-0.34996-0.34995v-1.101h0.663v0.8957h0.80892v-0.86677l-1.3257-1.2555c-0.09525-0.0921-0.14323-0.2092-0.14323-0.35278v-1.0389c0-0.23142 0.11712-0.34854 0.34996-0.34995h1.4291c0.23283 0.001 0.34996 0.11571 0.34996 0.34431v1.0446h-0.66005v-0.83361h-0.809v0.80186l1.3254 1.2488c0.09525 0.0892 0.14358 0.2092 0.14358 0.35807zm3.0536 0.3556h-0.043l-0.29774-0.22613c-0.04551 0.14746-0.14746 0.22048-0.30727 0.22048h-1.5268c-0.23283 0-0.34855-0.11712-0.34996-0.34995v-3.7193c0.0013-0.23142 0.11994-0.34854 0.35842-0.34995h1.5184c0.23283 0.001 0.3489 0.11853 0.34996 0.34995v3.2537l0.30057 0.21484zm-0.96062-0.57186v-0.15733l-0.384-0.3v-0.60078h0.03986l0.34713 0.26071v-2.4945h-0.90805v3.2868zm3.4893 0.21626c0 0.23283-0.11712 0.34995-0.34995 0.34995h-1.5092c-0.23283 0-0.34855-0.11712-0.34996-0.34995v-4.0693h0.65864v3.853h0.89182v-3.853h0.65864zm1.2044 0.34995h-0.65864v-4.4192h0.65864zm2.661-0.34995c0 0.23283-0.11571 0.34995-0.34996 0.34995h-1.425c-0.23283 0-0.34996-0.11712-0.34996-0.34995v-1.101h0.66005v0.8957h0.81033v-0.86677l-1.3257-1.2555c-0.09631-0.0921-0.14464-0.2092-0.14464-0.35278v-1.0389c0-0.23142 0.11712-0.34854 0.34996-0.34995h1.4291c0.23424 0.001 0.34996 0.11571 0.34996 0.34431v1.0446h-0.658v-0.83361h-0.81033v0.80186l1.3257 1.2488c0.0949 0.0892 0.14323 0.2092 0.14323 0.35807zm2.7658 0.34995h-0.65476l-0.13229-0.83784h-0.82797l-0.13229 0.83784h-0.65334v-0.0109l0.85584-4.414h0.69462zm-0.88053-1.4055-0.32244-1.9942-0.32385 1.9942zm3.368 1.0555c0 0.23283-0.11606 0.34995-0.3489 0.34995h-1.4288c-0.2346 0-0.35031-0.11712-0.35031-0.34995v-1.101h0.65899v0.8957h0.80998v-0.86677l-1.3254-1.2555c-0.09525-0.0921-0.14358-0.2092-0.14358-0.35278v-1.0389c0-0.23142 0.11571-0.34854 0.35031-0.34995h1.4288c0.23283 0.001 0.3489 0.11571 0.3489 0.34431v1.0446h-0.65899v-0.83361h-0.80998v0.80186l1.3254 1.2488c0.09666 0.0892 0.14358 0.2092 0.14358 0.35807zm6.4629-1.6027c-0.0013 0.23283-0.11712 0.34995-0.34996 0.34995h-1.121v1.6027h-0.66005v-4.4192h1.7847c0.23283 0.001 0.34855 0.11853 0.34996 0.34995zm-0.66569-0.21626v-1.6842h-0.805v1.6842zm2.8706 2.1689h-1.735v-4.4192h0.65864v3.8294h1.0763zm1.065 0h-0.655v-4.4192h0.65864zm2.7189-0.34995c0 0.23283-0.11713 0.34995-0.34996 0.34995h-1.4743c-0.23318 0-0.3489-0.11712-0.35031-0.34995v-3.7193c0.0013-0.23142 0.11712-0.34854 0.35031-0.34995h1.4743c0.23283 0.001 0.34996 0.11853 0.34996 0.34995v1.0968h-0.65864v-0.88054h-0.8569v3.2868h0.8569v-0.92604h0.65864zm2.7591 0.34995h-0.65335l-0.1337-0.83784h-0.82797l-0.13229 0.83784h-0.65334v-0.0109l0.85584-4.414h0.69603zm-0.88053-1.4055-0.32244-1.9942-0.32385 1.9942zm3.4562 0.57327c0 0.25753-0.0773 0.46284-0.23319 0.61031-0.15557 0.14746-0.3623 0.22189-0.62406 0.22189h-1.3476v-4.4192h1.3476c0.26176 0 0.46849 0.0759 0.62406 0.22577 0.15593 0.14888 0.23319 0.35419 0.23319 0.61348zm-0.66569-0.11042v-2.5396c0-0.24659-0.12947-0.37077-0.38735-0.37077h-0.49177v3.2868h0.47519c0.26882 0 0.40393-0.12558 0.40393-0.37641zm3.4135 0.94262h-0.65334l-0.1337-0.83784h-0.82797l-0.13123 0.83784h-0.65441v-0.0109l0.85725-4.414h0.69427zm-0.87947-1.4055-0.32385-1.9942-0.3235 1.9942zm3.368 1.0555c0 0.23283-0.11712 0.34995-0.34996 0.34995h-1.4291c-0.23283 0-0.34995-0.11712-0.34995-0.34995v-1.101h0.66004v0.8957h0.81033v-0.86677l-1.3257-1.2555c-0.0963-0.0921-0.14464-0.2092-0.14464-0.35278v-1.0389c0-0.23142 0.11712-0.34854 0.34995-0.34995h1.4291c0.23284 0.001 0.34996 0.11571 0.34996 0.34431v1.0446h-0.65864v-0.83361h-0.81033v0.80186l1.3257 1.2488c0.0953 0.0892 0.14323 0.2092 0.14323 0.35807zm3.9564 0.34995h-0.65299l-0.1337-0.83784h-0.82691l-0.1323 0.83784h-0.65475v-0.0109l0.85725-4.414h0.69462zm-0.87912-1.4055-0.32385-1.9942-0.32385 1.9942zm5.6871 1.4055h-0.66005v-4.4192h0.66005zm2.661-0.34995c0 0.23283-0.11712 0.34995-0.34995 0.34995h-1.4291c-0.23283 0-0.34995-0.11712-0.34995-0.34995v-1.101h0.65864v0.8957h0.81033v-0.86677l-1.3257-1.2555c-0.0949-0.0921-0.14323-0.2092-0.14323-0.35278v-1.0389c0-0.23142 0.11712-0.34854 0.34995-0.34995h1.4291c0.23283 0.001 0.34995 0.11571 0.34995 0.34431v1.0446h-0.66004v-0.83361h-0.81033v0.80186l1.3257 1.2488c0.0963 0.0892 0.14463 0.2092 0.14463 0.35807zm2.7644 0.34995h-0.65334l-0.13371-0.83784h-0.82797l-0.13088 0.83784h-0.65475v-0.0109l0.85584-4.414h0.69603zm-0.87912-1.4055-0.32385-1.9942-0.32385 1.9942zm0.3817-3.5666c0 0.23425-0.0882 0.35031-0.26599 0.35031-0.0977 0-0.23424-0.0332-0.40534-0.0995-0.12806-0.0522-0.2533-0.10336-0.38171-0.15558v0.24942h-0.43956v-0.44521c0-0.1778 0.0896-0.26599 0.26599-0.26599 0.10337 0 0.23707 0.0317 0.40111 0.0967 0.12665 0.0508 0.25647 0.10477 0.38594 0.15699v-0.24801h0.43956zm3.0963 4.6221c-0.001 0.23283-0.11853 0.34995-0.34995 0.34995h-1.5268c-0.23284 0-0.34996-0.11712-0.34996-0.34995v-3.7193c0-0.23142 0.11712-0.34854 0.34996-0.34995h1.5268c0.23142 0.001 0.34854 0.11853 0.34995 0.34995zm-0.66004-0.21626v-3.2868h-0.90805v3.2868zm4.2168 0.56621h-1.8327v-4.4192h1.8161v0.5842h-1.1575v1.2898h1.0019v0.57326h-1.0019v1.3878h1.174zm5.0973 0h-0.57715l-1.0626-2.7809c0.0289 0.13511 0.0427 0.2413 0.0427 0.31855v2.4624h-0.64206v-4.4192h0.57715l1.0626 2.7256c-0.0289-0.13618-0.0427-0.24236-0.0427-0.31962v-2.4059h0.64206zm2.4532-3.835h-0.72919v3.835h-0.66005v-3.835h-0.72883v-0.5842h2.1181zm2.1703 3.835h-1.8341v-4.4192h1.8161v0.5842h-1.1575v1.2898h1.0019v0.57326h-1.0019v1.3878h1.1754zm2.1855 0h-1.735v-4.4192h0.66005v3.8294h1.0749zm1.0654 0h-0.65865v-4.4192h0.65865zm2.7312-0.34995c-0.001 0.23283-0.11854 0.34995-0.34996 0.34995h-1.487c-0.23283 0-0.34854-0.11712-0.34995-0.34995v-3.7193c0.001-0.23142 0.11995-0.34854 0.35807-0.34995h1.4788c0.23142 0.001 0.34854 0.11853 0.34996 0.34995v0.99766h-0.66569v-0.78141h-0.86113v3.2868h0.86113v-1.2446h-0.49177v-0.56056h1.1575zm2.3604 0.34995h-1.8341v-4.4192h1.8175v0.5842h-1.1575v1.2898h1.0005v0.57326h-1.0005v1.3878h1.174zm-0.11007-4.6094h-0.42298l-0.38876-0.32526-0.38876 0.32526h-0.41875v-0.0222l0.58561-0.7359h0.44662l0.58702 0.7359zm2.8 4.6094h-0.57715l-1.0612-2.7809c0.0275 0.13511 0.0427 0.2413 0.0427 0.31855v2.4624h-0.64206v-4.4192h0.57715l1.0612 2.7256c-0.0275-0.13618-0.0427-0.24236-0.0427-0.31962v-2.4059h0.64206zm2.7079-0.34995c-0.001 0.23283-0.11853 0.34995-0.34995 0.34995h-1.476c-0.23143 0-0.34855-0.11712-0.34996-0.34995v-3.7193c0.001-0.23142 0.11853-0.34854 0.34996-0.34995h1.476c0.23142 0.001 0.34854 0.11853 0.34995 0.34995v1.0968h-0.66004v-0.88054h-0.85584v3.2868h0.85584v-0.92604h0.66004zm1.1906 0.34995h-0.66005v-4.4192h0.66005zm2.7824 0h-0.65334l-0.1337-0.83784h-0.82797l-0.13229 0.83784h-0.65335v-0.0109l0.85584-4.414h0.69603zm-0.88052-1.4055-0.32244-1.9942-0.32385 1.9942zm7.3656 1.0555c-0.001 0.23283-0.11853 0.34995-0.35031 0.34995h-1.5268c-0.23284 0-0.34996-0.11712-0.34996-0.34995v-3.7193c0-0.23142 0.11712-0.34854 0.34996-0.34995h1.5268c0.23178 0.001 0.3489 0.11853 0.35031 0.34995zm-0.66005-0.21626v-3.2868h-0.9084v3.2868zm3.8707 0.56621h-0.63641v-2.1802c0-0.11571 0.0138-0.27551 0.0385-0.48083l-0.57185 2.256h-0.3362l-0.57609-2.256c0.0261 0.20955 0.0399 0.36936 0.0399 0.48083v2.1802h-0.63677v-4.4192h0.62442l0.69744 2.4419c0.008 0.0261 0.0138 0.0935 0.0177 0.20109 0-0.0469 0.006-0.1143 0.0166-0.20109l0.70026-2.4419h0.62266zm2.6557-1.9526c-0.001 0.23283-0.11712 0.34995-0.35031 0.34995h-1.1243v1.6027h-0.66005v-4.4192h1.7844c0.23319 0.001 0.3489 0.11853 0.35031 0.34995zm-0.66569-0.21626v-1.6842h-0.80892v1.6842zm3.3443 1.8189c0 0.23283-0.11712 0.34995-0.34995 0.34995h-1.5088c-0.23284 0-0.34996-0.11712-0.34996-0.34995v-4.0693h0.65864v3.853h0.89147v-3.853h0.65863zm2.4543-3.4851h-0.72884v3.835h-0.66005v-3.835h-0.72919v-0.5842h2.1181zm2.5756 3.835h-0.65441l-0.13229-0.83784h-0.82832l-0.13229 0.83784h-0.67v-0.0109l0.85725-4.414h0.69462zm-0.88053-1.4055-0.32385-1.9942-0.32385 1.9942zm3.4258 1.0555c0 0.23283-0.11712 0.34995-0.34996 0.34995h-1.4746c-0.23283 0-0.34854-0.11712-0.34995-0.34995v-3.7193c0.001-0.23142 0.11712-0.34854 0.34995-0.34995h1.4746c0.23284 0.001 0.34996 0.11853 0.34996 0.34995v1.0968h-0.65864v-0.88054h-0.85725v3.2868h0.85725v-0.92604h0.65864zm1.1906 0.34995h-0.65863v-4.4192h0.65863zm2.7711-0.34995c-0.001 0.23283-0.11712 0.34995-0.34995 0.34995h-1.5268c-0.23283 0-0.34854-0.11712-0.34995-0.34995v-3.7193c0.001-0.23142 0.11712-0.34854 0.34995-0.34995h1.5268c0.23283 0.001 0.34854 0.11853 0.34995 0.34995zm-0.65863-0.21626v-3.2868h-0.90805v3.2868zm3.43 0.56621h-0.57749l-1.0626-2.7809c0.0289 0.13511 0.043 0.2413 0.043 0.31855v2.4624h-0.65v-4.4192h0.5775l1.0626 2.7256c-0.0289-0.13618-0.0427-0.24236-0.0427-0.31962v-2.4059h0.64205zm2.7711 0h-0.65441l-0.13229-0.83784h-0.82832l-0.13229 0.83784h-0.65299v-0.0109l0.85548-4.414h0.69462zm-0.88054-1.4055-0.32244-1.9942-0.32384 1.9942zm2.9863 1.4055h-1.735v-4.4192h0.66005v3.8294h1.0749z" fill="#fff"/>
 </g>
</svg>
